# Tiled2Unity generated file. Do not modify by hand.
# Wavefront file for 'Escena2_mesh_0002.obj'

# Vertices (Count = 12)
v -11 -13 0
v -12 -13 0
v -12 -12 0
v -11 -12 0
v -12 -13 0
v -13 -13 0
v -13 -12 0
v -12 -12 0
v -13 -13 0
v -14 -13 0
v -14 -12 0
v -13 -12 0

# Texture cooridinates (Count = 4)
vt 0.3684971 0.966763
vt 0.3988439 0.966763
vt 0.3988439 0.9971098
vt 0.3684971 0.9971098

# Normal
vn 0 0 -1

# Mesh description
g Escena2_mesh_0002

# Faces
f 1/1/1 2/2/1 3/3/1 4/4/1
f 5/1/1 6/2/1 7/3/1 8/4/1
f 9/1/1 10/2/1 11/3/1 12/4/1

