# Tiled2Unity generated file. Do not modify by hand.
# Wavefront file for 'Escena2_mesh_0003.obj'

# Vertices (Count = 124)
v -72 -2 0
v -73 -2 0
v -73 -1 0
v -72 -1 0
v -86 -3 0
v -87 -3 0
v -87 -2 0
v -86 -2 0
v -92 -3 0
v -93 -3 0
v -93 -2 0
v -92 -2 0
v -50 -4 0
v -51 -4 0
v -51 -3 0
v -50 -3 0
v -17 -5 0
v -18 -5 0
v -18 -4 0
v -17 -4 0
v -29 -5 0
v -30 -5 0
v -30 -4 0
v -29 -4 0
v -62 -5 0
v -63 -5 0
v -63 -4 0
v -62 -4 0
v -36 -6 0
v -37 -6 0
v -37 -5 0
v -36 -5 0
v -78 -6 0
v -79 -6 0
v -79 -5 0
v -78 -5 0
v -97 -6 0
v -98 -6 0
v -98 -5 0
v -97 -5 0
v -5 -7 0
v -6 -7 0
v -6 -6 0
v -5 -6 0
v -57 -9 0
v -58 -9 0
v -58 -8 0
v -57 -8 0
v -64 -10 0
v -65 -10 0
v -65 -9 0
v -64 -9 0
v -66 -10 0
v -67 -10 0
v -67 -9 0
v -66 -9 0
v -69 -10 0
v -70 -10 0
v -70 -9 0
v -69 -9 0
v -71 -10 0
v -72 -10 0
v -72 -9 0
v -71 -9 0
v -22 -11 0
v -23 -11 0
v -23 -10 0
v -22 -10 0
v -41 -12 0
v -42 -12 0
v -42 -11 0
v -41 -11 0
v -43 -12 0
v -44 -12 0
v -44 -11 0
v -43 -11 0
v -45 -12 0
v -46 -12 0
v -46 -11 0
v -45 -11 0
v -49 -12 0
v -50 -12 0
v -50 -11 0
v -49 -11 0
v -90 -15 0
v -91 -15 0
v -91 -14 0
v -90 -14 0
v -92 -15 0
v -93 -15 0
v -93 -14 0
v -92 -14 0
v -95 -15 0
v -96 -15 0
v -96 -14 0
v -95 -14 0
v -96 -15 0
v -97 -15 0
v -97 -14 0
v -96 -14 0
v -1 -16 0
v -2 -16 0
v -2 -15 0
v -1 -15 0
v -2 -16 0
v -3 -16 0
v -3 -15 0
v -2 -15 0
v -6 -16 0
v -7 -16 0
v -7 -15 0
v -6 -15 0
v -10 -16 0
v -11 -16 0
v -11 -15 0
v -10 -15 0
v -12 -16 0
v -13 -16 0
v -13 -15 0
v -12 -15 0
v -15 -16 0
v -16 -16 0
v -16 -15 0
v -15 -15 0

# Texture cooridinates (Count = 16)
vt 0.5679191 0.933526
vt 0.5982659 0.933526
vt 0.5982659 0.9638728
vt 0.5679191 0.9638728
vt 0.5014451 0.7008671
vt 0.5317919 0.7008671
vt 0.5317919 0.7312139
vt 0.5014451 0.7312139
vt 0.6011561 0.933526
vt 0.6315029 0.933526
vt 0.6315029 0.9638728
vt 0.6011561 0.9638728
vt 0.6011561 0.966763
vt 0.6315029 0.966763
vt 0.6315029 0.9971098
vt 0.6011561 0.9971098

# Normal
vn 0 0 -1

# Mesh description
g Escena2_mesh_0003

# Faces
f 1/1/1 2/2/1 3/3/1 4/4/1
f 5/1/1 6/2/1 7/3/1 8/4/1
f 9/1/1 10/2/1 11/3/1 12/4/1
f 13/1/1 14/2/1 15/3/1 16/4/1
f 17/1/1 18/2/1 19/3/1 20/4/1
f 21/1/1 22/2/1 23/3/1 24/4/1
f 25/1/1 26/2/1 27/3/1 28/4/1
f 29/1/1 30/2/1 31/3/1 32/4/1
f 33/1/1 34/2/1 35/3/1 36/4/1
f 37/1/1 38/2/1 39/3/1 40/4/1
f 41/1/1 42/2/1 43/3/1 44/4/1
f 45/1/1 46/2/1 47/3/1 48/4/1
f 49/5/1 50/6/1 51/7/1 52/8/1
f 53/9/1 54/10/1 55/11/1 56/12/1
f 57/13/1 58/14/1 59/15/1 60/16/1
f 61/9/1 62/10/1 63/11/1 64/12/1
f 65/1/1 66/2/1 67/3/1 68/4/1
f 69/9/1 70/10/1 71/11/1 72/12/1
f 73/13/1 74/14/1 75/15/1 76/16/1
f 77/5/1 78/6/1 79/7/1 80/8/1
f 81/9/1 82/10/1 83/11/1 84/12/1
f 85/9/1 86/10/1 87/11/1 88/12/1
f 89/5/1 90/6/1 91/7/1 92/8/1
f 93/9/1 94/10/1 95/11/1 96/12/1
f 97/13/1 98/14/1 99/15/1 100/16/1
f 101/5/1 102/6/1 103/7/1 104/8/1
f 105/9/1 106/10/1 107/11/1 108/12/1
f 109/13/1 110/14/1 111/15/1 112/16/1
f 113/9/1 114/10/1 115/11/1 116/12/1
f 117/13/1 118/14/1 119/15/1 120/16/1
f 121/5/1 122/6/1 123/7/1 124/8/1

