# Tiled2Unity generated file. Do not modify by hand.
# Wavefront file for 'Escena4_mesh_0003.obj'

# Vertices (Count = 260)
v -33 -2 0
v -34 -2 0
v -34 -1 0
v -33 -1 0
v -52 -2 0
v -53 -2 0
v -53 -1 0
v -52 -1 0
v -70 -3 0
v -71 -3 0
v -71 -2 0
v -70 -2 0
v -80 -3 0
v -81 -3 0
v -81 -2 0
v -80 -2 0
v -4 -4 0
v -5 -4 0
v -5 -3 0
v -4 -3 0
v -95 -4 0
v -96 -4 0
v -96 -3 0
v -95 -3 0
v -21 -5 0
v -22 -5 0
v -22 -4 0
v -21 -4 0
v -58 -5 0
v -59 -5 0
v -59 -4 0
v -58 -4 0
v -43 -6 0
v -44 -6 0
v -44 -5 0
v -43 -5 0
v -12 -7 0
v -13 -7 0
v -13 -6 0
v -12 -6 0
v -32 -7 0
v -33 -7 0
v -33 -6 0
v -32 -6 0
v -63 -7 0
v -64 -7 0
v -64 -6 0
v -63 -6 0
v -78 -7 0
v -79 -7 0
v -79 -6 0
v -78 -6 0
v -87 -7 0
v -88 -7 0
v -88 -6 0
v -87 -6 0
v -31 -8 0
v -32 -8 0
v -32 -7 0
v -31 -7 0
v -32 -8 0
v -33 -8 0
v -33 -7 0
v -32 -7 0
v -63 -8 0
v -64 -8 0
v -64 -7 0
v -63 -7 0
v -64 -8 0
v -65 -8 0
v -65 -7 0
v -64 -7 0
v -78 -8 0
v -79 -8 0
v -79 -7 0
v -78 -7 0
v -79 -8 0
v -80 -8 0
v -80 -7 0
v -79 -7 0
v -32 -9 0
v -33 -9 0
v -33 -8 0
v -32 -8 0
v -33 -9 0
v -34 -9 0
v -34 -8 0
v -33 -8 0
v -62 -9 0
v -63 -9 0
v -63 -8 0
v -62 -8 0
v -63 -9 0
v -64 -9 0
v -64 -8 0
v -63 -8 0
v -77 -9 0
v -78 -9 0
v -78 -8 0
v -77 -8 0
v -78 -9 0
v -79 -9 0
v -79 -8 0
v -78 -8 0
v -26 -10 0
v -27 -10 0
v -27 -9 0
v -26 -9 0
v -27 -10 0
v -28 -10 0
v -28 -9 0
v -27 -9 0
v -29 -10 0
v -30 -10 0
v -30 -9 0
v -29 -9 0
v -32 -10 0
v -33 -10 0
v -33 -9 0
v -32 -9 0
v -34 -10 0
v -35 -10 0
v -35 -9 0
v -34 -9 0
v -37 -10 0
v -38 -10 0
v -38 -9 0
v -37 -9 0
v -40 -10 0
v -41 -10 0
v -41 -9 0
v -40 -9 0
v -41 -10 0
v -42 -10 0
v -42 -9 0
v -41 -9 0
v -61 -10 0
v -62 -10 0
v -62 -9 0
v -61 -9 0
v -63 -10 0
v -64 -10 0
v -64 -9 0
v -63 -9 0
v -65 -10 0
v -66 -10 0
v -66 -9 0
v -65 -9 0
v -68 -10 0
v -69 -10 0
v -69 -9 0
v -68 -9 0
v -70 -10 0
v -71 -10 0
v -71 -9 0
v -70 -9 0
v -73 -10 0
v -74 -10 0
v -74 -9 0
v -73 -9 0
v -77 -10 0
v -78 -10 0
v -78 -9 0
v -77 -9 0
v -78 -10 0
v -79 -10 0
v -79 -9 0
v -78 -9 0
v -94 -11 0
v -95 -11 0
v -95 -10 0
v -94 -10 0
v -94 -12 0
v -95 -12 0
v -95 -11 0
v -94 -11 0
v -95 -12 0
v -96 -12 0
v -96 -11 0
v -95 -11 0
v -5 -13 0
v -6 -13 0
v -6 -12 0
v -5 -12 0
v -93 -13 0
v -94 -13 0
v -94 -12 0
v -93 -12 0
v -94 -13 0
v -95 -13 0
v -95 -12 0
v -94 -12 0
v -5 -14 0
v -6 -14 0
v -6 -13 0
v -5 -13 0
v -6 -14 0
v -7 -14 0
v -7 -13 0
v -6 -13 0
v -92 -14 0
v -93 -14 0
v -93 -13 0
v -92 -13 0
v -94 -14 0
v -95 -14 0
v -95 -13 0
v -94 -13 0
v -95 -14 0
v -96 -14 0
v -96 -13 0
v -95 -13 0
v -96 -14 0
v -97 -14 0
v -97 -13 0
v -96 -13 0
v -98 -14 0
v -99 -14 0
v -99 -13 0
v -98 -13 0
v -4 -15 0
v -5 -15 0
v -5 -14 0
v -4 -14 0
v -5 -15 0
v -6 -15 0
v -6 -14 0
v -5 -14 0
v 0 -16 0
v -1 -16 0
v -1 -15 0
v 0 -15 0
v -1 -16 0
v -2 -16 0
v -2 -15 0
v -1 -15 0
v -2 -16 0
v -3 -16 0
v -3 -15 0
v -2 -15 0
v -3 -16 0
v -4 -16 0
v -4 -15 0
v -3 -15 0
v -5 -16 0
v -6 -16 0
v -6 -15 0
v -5 -15 0
v -7 -16 0
v -8 -16 0
v -8 -15 0
v -7 -15 0
v -9 -16 0
v -10 -16 0
v -10 -15 0
v -9 -15 0
v -10 -16 0
v -11 -16 0
v -11 -15 0
v -10 -15 0

# Texture cooridinates (Count = 44)
vt 0.5679191 0.933526
vt 0.5982659 0.933526
vt 0.5982659 0.9638728
vt 0.5679191 0.9638728
vt 0.1026012 0.2355492
vt 0.132948 0.2355492
vt 0.132948 0.265896
vt 0.1026012 0.265896
vt 0.2355491 0.2687861
vt 0.265896 0.2687861
vt 0.265896 0.2991329
vt 0.2355491 0.2991329
vt 0.1358382 0.2355492
vt 0.166185 0.2355492
vt 0.166185 0.265896
vt 0.1358382 0.265896
vt 0.1358382 0.2687861
vt 0.166185 0.2687861
vt 0.166185 0.2991329
vt 0.1358382 0.2991329
vt 0.2023121 0.2687861
vt 0.232659 0.2687861
vt 0.232659 0.2991329
vt 0.2023121 0.2991329
vt 0.5014451 0.7008671
vt 0.5317919 0.7008671
vt 0.5317919 0.7312139
vt 0.5014451 0.7312139
vt 0.5346821 0.966763
vt 0.5650289 0.966763
vt 0.5650289 0.9971098
vt 0.5346821 0.9971098
vt 0.6011561 0.933526
vt 0.6315029 0.933526
vt 0.6315029 0.9638728
vt 0.6011561 0.9638728
vt 0.03612717 0.2687861
vt 0.06647399 0.2687861
vt 0.06647399 0.2991329
vt 0.03612717 0.2991329
vt 0.6011561 0.3020231
vt 0.6315029 0.3020231
vt 0.6315029 0.3323699
vt 0.6011561 0.3323699

# Normal
vn 0 0 -1

# Mesh description
g Escena4_mesh_0003

# Faces
f 1/1/1 2/2/1 3/3/1 4/4/1
f 5/1/1 6/2/1 7/3/1 8/4/1
f 9/1/1 10/2/1 11/3/1 12/4/1
f 13/1/1 14/2/1 15/3/1 16/4/1
f 17/1/1 18/2/1 19/3/1 20/4/1
f 21/1/1 22/2/1 23/3/1 24/4/1
f 25/1/1 26/2/1 27/3/1 28/4/1
f 29/1/1 30/2/1 31/3/1 32/4/1
f 33/1/1 34/2/1 35/3/1 36/4/1
f 37/1/1 38/2/1 39/3/1 40/4/1
f 41/5/1 42/6/1 43/7/1 44/8/1
f 45/5/1 46/6/1 47/7/1 48/8/1
f 49/5/1 50/6/1 51/7/1 52/8/1
f 53/1/1 54/2/1 55/3/1 56/4/1
f 57/9/1 58/10/1 59/11/1 60/12/1
f 61/13/1 62/14/1 63/15/1 64/16/1
f 65/17/1 66/18/1 67/19/1 68/20/1
f 69/21/1 70/22/1 71/23/1 72/24/1
f 73/17/1 74/18/1 75/19/1 76/20/1
f 77/21/1 78/22/1 79/23/1 80/24/1
f 81/17/1 82/18/1 83/19/1 84/20/1
f 85/21/1 86/22/1 87/23/1 88/24/1
f 89/9/1 90/10/1 91/11/1 92/12/1
f 93/13/1 94/14/1 95/15/1 96/16/1
f 97/9/1 98/10/1 99/11/1 100/12/1
f 101/13/1 102/14/1 103/15/1 104/16/1
f 105/25/1 106/26/1 107/27/1 108/28/1
f 109/29/1 110/30/1 111/31/1 112/32/1
f 113/33/1 114/34/1 115/35/1 116/36/1
f 117/37/1 118/38/1 119/39/1 120/40/1
f 121/29/1 122/30/1 123/31/1 124/32/1
f 125/25/1 126/26/1 127/27/1 128/28/1
f 129/29/1 130/30/1 131/31/1 132/32/1
f 133/33/1 134/34/1 135/35/1 136/36/1
f 137/29/1 138/30/1 139/31/1 140/32/1
f 141/37/1 142/38/1 143/39/1 144/40/1
f 145/33/1 146/34/1 147/35/1 148/36/1
f 149/25/1 150/26/1 151/27/1 152/28/1
f 153/29/1 154/30/1 155/31/1 156/32/1
f 157/41/1 158/42/1 159/43/1 160/44/1
f 161/29/1 162/30/1 163/31/1 164/32/1
f 165/37/1 166/38/1 167/39/1 168/40/1
f 169/5/1 170/6/1 171/7/1 172/8/1
f 173/17/1 174/18/1 175/19/1 176/20/1
f 177/21/1 178/22/1 179/23/1 180/24/1
f 181/5/1 182/6/1 183/7/1 184/8/1
f 185/9/1 186/10/1 187/11/1 188/12/1
f 189/13/1 190/14/1 191/15/1 192/16/1
f 193/17/1 194/18/1 195/19/1 196/20/1
f 197/21/1 198/22/1 199/23/1 200/24/1
f 201/25/1 202/26/1 203/27/1 204/28/1
f 205/37/1 206/38/1 207/39/1 208/40/1
f 209/29/1 210/30/1 211/31/1 212/32/1
f 213/33/1 214/34/1 215/35/1 216/36/1
f 217/29/1 218/30/1 219/31/1 220/32/1
f 221/9/1 222/10/1 223/11/1 224/12/1
f 225/13/1 226/14/1 227/15/1 228/16/1
f 229/25/1 230/26/1 231/27/1 232/28/1
f 233/29/1 234/30/1 235/31/1 236/32/1
f 237/33/1 238/34/1 239/35/1 240/36/1
f 241/29/1 242/30/1 243/31/1 244/32/1
f 245/37/1 246/38/1 247/39/1 248/40/1
f 249/33/1 250/34/1 251/35/1 252/36/1
f 253/29/1 254/30/1 255/31/1 256/32/1
f 257/25/1 258/26/1 259/27/1 260/28/1

