# Tiled2Unity generated file. Do not modify by hand.
# Wavefront file for 'Escena4_mesh_0002.obj'

# Vertices (Count = 192)
v -80 -17 0
v -81 -17 0
v -81 -16 0
v -80 -16 0
v -81 -17 0
v -82 -17 0
v -82 -16 0
v -81 -16 0
v -82 -17 0
v -83 -17 0
v -83 -16 0
v -82 -16 0
v -83 -17 0
v -84 -17 0
v -84 -16 0
v -83 -16 0
v -84 -17 0
v -85 -17 0
v -85 -16 0
v -84 -16 0
v -85 -17 0
v -86 -17 0
v -86 -16 0
v -85 -16 0
v -86 -17 0
v -87 -17 0
v -87 -16 0
v -86 -16 0
v -87 -17 0
v -88 -17 0
v -88 -16 0
v -87 -16 0
v -88 -17 0
v -89 -17 0
v -89 -16 0
v -88 -16 0
v -89 -17 0
v -90 -17 0
v -90 -16 0
v -89 -16 0
v -90 -17 0
v -91 -17 0
v -91 -16 0
v -90 -16 0
v -91 -17 0
v -92 -17 0
v -92 -16 0
v -91 -16 0
v -80 -18 0
v -81 -18 0
v -81 -17 0
v -80 -17 0
v -81 -18 0
v -82 -18 0
v -82 -17 0
v -81 -17 0
v -82 -18 0
v -83 -18 0
v -83 -17 0
v -82 -17 0
v -83 -18 0
v -84 -18 0
v -84 -17 0
v -83 -17 0
v -84 -18 0
v -85 -18 0
v -85 -17 0
v -84 -17 0
v -85 -18 0
v -86 -18 0
v -86 -17 0
v -85 -17 0
v -86 -18 0
v -87 -18 0
v -87 -17 0
v -86 -17 0
v -87 -18 0
v -88 -18 0
v -88 -17 0
v -87 -17 0
v -88 -18 0
v -89 -18 0
v -89 -17 0
v -88 -17 0
v -89 -18 0
v -90 -18 0
v -90 -17 0
v -89 -17 0
v -90 -18 0
v -91 -18 0
v -91 -17 0
v -90 -17 0
v -91 -18 0
v -92 -18 0
v -92 -17 0
v -91 -17 0
v -80 -19 0
v -81 -19 0
v -81 -18 0
v -80 -18 0
v -81 -19 0
v -82 -19 0
v -82 -18 0
v -81 -18 0
v -82 -19 0
v -83 -19 0
v -83 -18 0
v -82 -18 0
v -83 -19 0
v -84 -19 0
v -84 -18 0
v -83 -18 0
v -84 -19 0
v -85 -19 0
v -85 -18 0
v -84 -18 0
v -85 -19 0
v -86 -19 0
v -86 -18 0
v -85 -18 0
v -86 -19 0
v -87 -19 0
v -87 -18 0
v -86 -18 0
v -87 -19 0
v -88 -19 0
v -88 -18 0
v -87 -18 0
v -88 -19 0
v -89 -19 0
v -89 -18 0
v -88 -18 0
v -89 -19 0
v -90 -19 0
v -90 -18 0
v -89 -18 0
v -90 -19 0
v -91 -19 0
v -91 -18 0
v -90 -18 0
v -91 -19 0
v -92 -19 0
v -92 -18 0
v -91 -18 0
v -80 -20 0
v -81 -20 0
v -81 -19 0
v -80 -19 0
v -81 -20 0
v -82 -20 0
v -82 -19 0
v -81 -19 0
v -82 -20 0
v -83 -20 0
v -83 -19 0
v -82 -19 0
v -83 -20 0
v -84 -20 0
v -84 -19 0
v -83 -19 0
v -84 -20 0
v -85 -20 0
v -85 -19 0
v -84 -19 0
v -85 -20 0
v -86 -20 0
v -86 -19 0
v -85 -19 0
v -86 -20 0
v -87 -20 0
v -87 -19 0
v -86 -19 0
v -87 -20 0
v -88 -20 0
v -88 -19 0
v -87 -19 0
v -88 -20 0
v -89 -20 0
v -89 -19 0
v -88 -19 0
v -89 -20 0
v -90 -20 0
v -90 -19 0
v -89 -19 0
v -90 -20 0
v -91 -20 0
v -91 -19 0
v -90 -19 0
v -91 -20 0
v -92 -20 0
v -92 -19 0
v -91 -19 0

# Texture cooridinates (Count = 8)
vt 0.4349711 0.966763
vt 0.4653179 0.966763
vt 0.4653179 0.9971098
vt 0.4349711 0.9971098
vt 0.4017341 0.933526
vt 0.4320809 0.933526
vt 0.4320809 0.9638728
vt 0.4017341 0.9638728

# Normal
vn 0 0 -1

# Mesh description
g Escena4_mesh_0002

# Faces
f 1/1/1 2/2/1 3/3/1 4/4/1
f 5/1/1 6/2/1 7/3/1 8/4/1
f 9/1/1 10/2/1 11/3/1 12/4/1
f 13/1/1 14/2/1 15/3/1 16/4/1
f 17/1/1 18/2/1 19/3/1 20/4/1
f 21/1/1 22/2/1 23/3/1 24/4/1
f 25/1/1 26/2/1 27/3/1 28/4/1
f 29/1/1 30/2/1 31/3/1 32/4/1
f 33/1/1 34/2/1 35/3/1 36/4/1
f 37/1/1 38/2/1 39/3/1 40/4/1
f 41/1/1 42/2/1 43/3/1 44/4/1
f 45/1/1 46/2/1 47/3/1 48/4/1
f 49/5/1 50/6/1 51/7/1 52/8/1
f 53/5/1 54/6/1 55/7/1 56/8/1
f 57/5/1 58/6/1 59/7/1 60/8/1
f 61/5/1 62/6/1 63/7/1 64/8/1
f 65/5/1 66/6/1 67/7/1 68/8/1
f 69/5/1 70/6/1 71/7/1 72/8/1
f 73/5/1 74/6/1 75/7/1 76/8/1
f 77/5/1 78/6/1 79/7/1 80/8/1
f 81/5/1 82/6/1 83/7/1 84/8/1
f 85/5/1 86/6/1 87/7/1 88/8/1
f 89/5/1 90/6/1 91/7/1 92/8/1
f 93/5/1 94/6/1 95/7/1 96/8/1
f 97/5/1 98/6/1 99/7/1 100/8/1
f 101/5/1 102/6/1 103/7/1 104/8/1
f 105/5/1 106/6/1 107/7/1 108/8/1
f 109/5/1 110/6/1 111/7/1 112/8/1
f 113/5/1 114/6/1 115/7/1 116/8/1
f 117/5/1 118/6/1 119/7/1 120/8/1
f 121/5/1 122/6/1 123/7/1 124/8/1
f 125/5/1 126/6/1 127/7/1 128/8/1
f 129/5/1 130/6/1 131/7/1 132/8/1
f 133/5/1 134/6/1 135/7/1 136/8/1
f 137/5/1 138/6/1 139/7/1 140/8/1
f 141/5/1 142/6/1 143/7/1 144/8/1
f 145/5/1 146/6/1 147/7/1 148/8/1
f 149/5/1 150/6/1 151/7/1 152/8/1
f 153/5/1 154/6/1 155/7/1 156/8/1
f 157/5/1 158/6/1 159/7/1 160/8/1
f 161/5/1 162/6/1 163/7/1 164/8/1
f 165/5/1 166/6/1 167/7/1 168/8/1
f 169/5/1 170/6/1 171/7/1 172/8/1
f 173/5/1 174/6/1 175/7/1 176/8/1
f 177/5/1 178/6/1 179/7/1 180/8/1
f 181/5/1 182/6/1 183/7/1 184/8/1
f 185/5/1 186/6/1 187/7/1 188/8/1
f 189/5/1 190/6/1 191/7/1 192/8/1

