# Tiled2Unity generated file. Do not modify by hand.
# Wavefront file for 'Escena1_mesh_0002.obj'

# Vertices (Count = 20)
v -26 -17 0
v -27 -17 0
v -27 -16 0
v -26 -16 0
v -27 -17 0
v -28 -17 0
v -28 -16 0
v -27 -16 0
v -28 -17 0
v -29 -17 0
v -29 -16 0
v -28 -16 0
v -29 -17 0
v -30 -17 0
v -30 -16 0
v -29 -16 0
v -30 -17 0
v -31 -17 0
v -31 -16 0
v -30 -16 0

# Texture cooridinates (Count = 4)
vt 0.3684971 0.966763
vt 0.3988439 0.966763
vt 0.3988439 0.9971098
vt 0.3684971 0.9971098

# Normal
vn 0 0 -1

# Mesh description
g Escena1_mesh_0002

# Faces
f 1/1/1 2/2/1 3/3/1 4/4/1
f 5/1/1 6/2/1 7/3/1 8/4/1
f 9/1/1 10/2/1 11/3/1 12/4/1
f 13/1/1 14/2/1 15/3/1 16/4/1
f 17/1/1 18/2/1 19/3/1 20/4/1

